<svg className="Homely-Logo" xmlns="http://www.w3.org/2000/svg" viewBox="0 0 515.37 530.45"><defs></defs><title>homely-vector </title><g id="Layer_2" data-name="Layer 2"><g id="App_Icon_Kit_A" data-name="App Icon Kit A"><path class="cls-1" d="M158.23,50.39,3.52,155.9a8,8,0,0,0,4.53,14.68H44.66A13.43,13.43,0,0,1,58.1,184v34.38H158.23Z"/><path class="cls-1" d="M337.23,218.39V49.44L270,3.56a20.46,20.46,0,0,0-23.07,0L178.23,50.39v168Z"/><path class="cls-1" d="M58.1,218.39V517a13.43,13.43,0,0,0,13.43,13.43h86.7V218.39Z"/><path class="cls-1" d="M511.55,154.69,357.23,49.44v169H458V184a13.43,13.43,0,0,1,13.44-13.43h35.24A8.7,8.7,0,0,0,511.55,154.69Z"/><path class="cls-1" d="M357.23,530.45h87.31A13.43,13.43,0,0,0,458,517V218.39H357.23Z"/><path class="cls-1" d="M178.23,218.39V530.45h20.9A13.43,13.43,0,0,0,212.56,517V420.3A13.43,13.43,0,0,1,226,406.87h62.51A13.43,13.43,0,0,1,302,420.3V517a13.43,13.43,0,0,0,13.44,13.43h21.84V218.39Z"/></g></g></svg>